<svg width="33" height="32" viewBox="0 0 33 32" fill="none" xmlns="http://www.w3.org/2000/svg">
<path d="M25.6808 26.1427L17.8227 18.5213C14.327 20.9313 9.51007 20.3418 6.74142 17.1652C3.97277 13.9887 4.17607 9.28477 7.2091 6.34399C10.2413 3.40191 15.0927 3.20393 18.3691 5.88854C21.6456 8.57315 22.2538 13.2446 19.7683 16.6347L27.6265 24.256L25.6822 26.1413L25.6808 26.1427ZM13.0418 6.66663C10.4344 6.66607 8.18492 8.44089 7.65525 10.9166C7.12558 13.3922 8.46133 15.8883 10.8538 16.8936C13.2462 17.8989 16.0378 17.1371 17.5384 15.0694C19.039 13.0017 18.8362 10.1964 17.0527 8.35199L17.8846 9.15199L16.9468 8.24532L16.9303 8.22932C15.9016 7.22555 14.5013 6.66282 13.0418 6.66663Z" fill="#8D95A1"/>
</svg>
