<svg width="29" height="26" viewBox="0 0 29 26" fill="none" xmlns="http://www.w3.org/2000/svg">
<path d="M7.25 2.16666L3.625 6.49999V21.6667C3.625 22.2413 3.87961 22.7924 4.33283 23.1987C4.78604 23.605 5.40073 23.8333 6.04167 23.8333H22.9583C23.5993 23.8333 24.214 23.605 24.6672 23.1987C25.1204 22.7924 25.375 22.2413 25.375 21.6667V6.49999L21.75 2.16666H7.25Z" stroke="#8D95A1" stroke-width="2" stroke-linecap="round" stroke-linejoin="round"/>
<path d="M3.625 6.5H25.375" stroke="#8D95A1" stroke-width="2" stroke-linecap="round" stroke-linejoin="round"/>
<path d="M19.3333 10.8333C19.3333 11.9826 18.8241 13.0848 17.9176 13.8975C17.0112 14.7101 15.7818 15.1667 14.5 15.1667C13.2181 15.1667 11.9887 14.7101 11.0823 13.8975C10.1759 13.0848 9.66663 11.9826 9.66663 10.8333" stroke="#8D95A1" stroke-width="2" stroke-linecap="round" stroke-linejoin="round"/>
</svg>
